<svg width="1200" height="420" viewBox="0 0 1200 420" fill="none" xmlns="http://www.w3.org/2000/svg" role="img" aria-labelledby="title desc">
  <title id="title">Neon cyan Python coding banner</title>
  <desc id="desc">A terminal inspired neon cyan banner with Python code about games, cute anime girls, and coding in free time.</desc>
  <defs>
    <linearGradient id="bg" x1="40" y1="30" x2="1160" y2="390" gradientUnits="userSpaceOnUse">
      <stop offset="0%" stop-color="#030712" />
      <stop offset="55%" stop-color="#07111F" />
      <stop offset="100%" stop-color="#03111A" />
    </linearGradient>
    <radialGradient id="glow-bg" cx="0" cy="0" r="1" gradientUnits="userSpaceOnUse" gradientTransform="translate(860 120) rotate(138.861) scale(432.614 355.992)">
      <stop stop-color="#22D3EE" stop-opacity="0.28" />
      <stop offset="1" stop-color="#22D3EE" stop-opacity="0" />
    </radialGradient>
    <linearGradient id="text" x1="118" y1="120" x2="1030" y2="310" gradientUnits="userSpaceOnUse">
      <stop offset="0%" stop-color="#A5F3FC" />
      <stop offset="50%" stop-color="#67E8F9" />
      <stop offset="100%" stop-color="#22D3EE" />
    </linearGradient>
    <pattern id="grid" width="36" height="36" patternUnits="userSpaceOnUse">
      <path d="M36 0H0V36" stroke="#38BDF8" stroke-opacity="0.12" />
    </pattern>
    <filter id="shadow" x="0" y="0" width="1200" height="420" filterUnits="userSpaceOnUse" color-interpolation-filters="sRGB">
      <feDropShadow dx="0" dy="18" stdDeviation="18" flood-color="#020617" flood-opacity="0.5" />
    </filter>
    <filter id="glow" x="0" y="0" width="1200" height="420" filterUnits="userSpaceOnUse" color-interpolation-filters="sRGB">
      <feGaussianBlur stdDeviation="6" result="blur" />
      <feColorMatrix in="blur" type="matrix" values="1 0 0 0 0  0 1 0 0 0.95  0 0 1 0 1  0 0 0 1 0" result="glow" />
      <feMerge>
        <feMergeNode in="glow" />
        <feMergeNode in="SourceGraphic" />
      </feMerge>
    </filter>
  </defs>

  <g filter="url(#shadow)">
    <rect x="28" y="24" width="1144" height="372" rx="28" fill="url(#bg)" />
    <rect x="28.75" y="24.75" width="1142.5" height="370.5" rx="27.25" stroke="#22D3EE" stroke-opacity="0.2" stroke-width="1.5" />
  </g>

  <rect x="28" y="24" width="1144" height="372" rx="28" fill="url(#glow-bg)" />
  <rect x="28" y="24" width="1144" height="372" rx="28" fill="url(#grid)" />
  <rect x="28" y="24" width="1144" height="56" rx="28" fill="#020817" />
  <path d="M28 80H1172" stroke="#22D3EE" stroke-opacity="0.12" />

  <circle cx="70" cy="52" r="7" fill="#FB7185" />
  <circle cx="96" cy="52" r="7" fill="#FBBF24" />
  <circle cx="122" cy="52" r="7" fill="#4ADE80" />

  <g opacity="0.18">
    <path d="M1040 104L1102 166" stroke="#67E8F9" stroke-width="2" />
    <path d="M1012 144L1074 206" stroke="#67E8F9" stroke-width="2" />
    <path d="M1080 100L1116 136" stroke="#67E8F9" stroke-width="2" />
  </g>

  <g filter="url(#glow)" font-family="'JetBrains Mono', 'Fira Code', monospace" fill="url(#text)">
    <text x="92" y="144" font-size="46" font-weight="700" letter-spacing="0.4">
      def welcome():
    </text>
    <text x="92" y="222" font-size="31" font-weight="600" letter-spacing="0.3">
      vibe = "Games, Cute Anime Girls"
    </text>
    <text x="92" y="276" font-size="31" font-weight="600" letter-spacing="0.3">
      return f"{vibe} &amp; Coding in my free time."
    </text>
    <text x="92" y="340" font-size="22" font-weight="500" fill="#9EEAF9">
      print(welcome())
    </text>
  </g>

  <rect x="909" y="111" width="18" height="44" rx="4" fill="#67E8F9" fill-opacity="0.85" />
  <rect x="92" y="363" width="316" height="4" rx="2" fill="#22D3EE" fill-opacity="0.9" />
  <rect x="420" y="363" width="84" height="4" rx="2" fill="#67E8F9" fill-opacity="0.38" />
</svg>
